PathFileType	4	(X/Y/Z)	D:\TRACE\v60_Jaco2_6-2-23\BothDRS_Motion1_8-platform.trc
DataRate	CameraRate	NumFrames	NumMarkers	Units	OrigDataRate	OrigDataStartFrame	OrigNumFrames
100.00	100.00	      48	5	mm	100.00	3751	      7500
Frame#	Time	Left_Front			Right_Front			Left_Aft			Right_Aft			Post			
		X1	Y1	Z1	X2	Y2	Z2	X3	Y3	Z3	X4	Y4	Z4	X5	Y5	Z5	

3751	37.500	-752.18054	37.73863	-631.80237	818.08716	39.15893	-636.73352	-660.19183	-12.34560	502.27869	782.01337	-13.87533	512.07147	34.55085	1349.53967	-897.93127	
3752	37.510	-751.83759	37.52131	-631.72937	818.38806	38.93982	-636.77112	-659.91553	-12.33241	502.26224	782.33771	-13.81133	512.12927	34.70038	1349.38794	-898.34912	
3753	37.520	-751.48456	37.32854	-631.97589	818.58594	38.79103	-636.76440	-659.59186	-12.34268	502.25528	782.71240	-13.72248	512.02808	34.95842	1349.14893	-898.66754	
3754	37.530	-751.10339	37.11365	-632.07190	818.87897	38.57430	-636.83905	-659.33270	-12.22655	502.23584	782.96991	-13.52470	512.05609	35.12435	1348.97168	-898.90497	
3755	37.540	-750.87897	37.03574	-632.09558	819.15430	38.40729	-636.91663	-659.11249	-12.03528	502.16971	783.27582	-13.20403	512.07007	35.26974	1348.67932	-899.27667	
3756	37.550	-750.68866	36.82864	-632.19855	819.24139	38.35623	-636.96118	-658.98572	-11.84806	502.08759	783.35663	-13.05819	511.70087	35.40121	1348.44165	-899.40002	
3757	37.560	-750.60730	36.64581	-632.23199	819.39191	38.19778	-637.02856	-658.81793	-11.78155	502.06506	783.38806	-13.01733	511.67468	35.74084	1347.98682	-899.89429	
3758	37.570	-750.51031	36.39412	-632.27472	819.37152	37.79779	-637.16833	-658.74237	-11.75055	502.01309	783.38007	-12.98825	511.64798	35.80548	1347.63916	-900.61908	
3759	37.580	-750.47528	36.25194	-632.22894	819.30847	37.47326	-637.32819	-658.61914	-11.62452	501.98575	783.46948	-12.95504	511.85141	35.68984	1347.43018	-900.92548	
3760	37.590	-750.39026	36.05876	-632.25830	819.28821	37.31288	-637.44641	-658.58478	-11.51113	501.97345	783.51880	-12.73062	511.75519	35.56010	1347.30493	-901.73309	
3761	37.600	-750.39899	35.96701	-632.33167	819.35114	37.15941	-637.47284	-658.51270	-11.37442	501.92297	783.66986	-12.54551	511.61841	35.89307	1347.02515	-902.48773	
3762	37.610	-750.35162	35.91603	-632.34064	819.34149	37.07112	-637.49738	-658.44830	-11.10456	501.92902	783.69818	-12.39232	511.58295	36.01198	1346.78137	-902.91797	
3763	37.620	-750.34680	35.51617	-632.33032	819.47864	36.76944	-637.52533	-658.44336	-11.01482	501.89658	783.64642	-12.27300	511.59311	36.25792	1346.36365	-903.25397	
3764	37.630	-750.36224	34.81192	-632.37897	819.77478	36.17336	-637.51282	-658.43689	-10.93967	501.86002	783.54279	-12.06712	511.61401	35.63974	1346.00842	-903.65790	
3765	37.640	-750.20404	34.40813	-632.58655	819.79309	35.90272	-637.44458	-658.52368	-10.57899	501.77481	783.38287	-11.84462	511.54391	35.38831	1345.61975	-904.31732	
3766	37.650	-750.26068	34.43439	-632.71210	819.69861	35.96426	-637.47577	-658.51941	-10.32687	501.76202	783.39069	-11.70878	511.50946	35.65247	1345.07849	-904.59521	
3767	37.660	-750.20502	34.40026	-632.53082	819.70453	35.79439	-637.51080	-658.54956	-10.06408	501.72049	783.74304	-11.45716	511.34180	35.82365	1344.89929	-904.88171	
3768	37.670	-750.22052	34.33304	-632.65845	819.62671	35.53707	-637.52429	-658.50684	-9.86991	501.68774	783.84180	-11.18372	511.24530	36.05233	1344.55518	-905.37671	
3769	37.680	-750.22839	33.95349	-632.73248	819.68451	35.09847	-637.67871	-658.63953	-9.54093	501.53091	783.65094	-11.05120	511.23145	35.94484	1344.29089	-905.72217	
3770	37.690	-750.33643	33.36214	-632.90350	819.60052	34.72447	-637.89197	-658.44342	-9.80496	501.40155	783.50317	-10.71743	511.23193	36.15924	1343.61597	-906.82843	
3771	37.700	-750.49921	32.91545	-632.96033	819.36993	34.25990	-638.08984	-658.51990	-9.70130	501.41147	783.17383	-10.61396	510.91968	35.83226	1343.16125	-907.71753	
3772	37.710	-750.63947	32.76068	-633.04010	819.36749	34.11767	-638.06812	-658.85693	-9.23297	501.07388	782.97662	-10.39148	510.85556	35.71746	1342.73364	-908.68719	
3773	37.720	-750.82300	32.64791	-633.07635	819.19342	34.05196	-638.08972	-659.04114	-9.04303	500.85287	783.10126	-10.10125	511.00620	35.87881	1342.39417	-909.70929	
3774	37.730	-751.11707	32.40025	-633.26080	818.98682	33.84512	-638.13831	-659.10083	-8.92436	500.80267	783.09271	-9.83914	510.85184	35.05404	1342.04980	-910.66571	
3775	37.740	-751.30933	31.99400	-633.49249	818.72137	33.50906	-638.40698	-659.34265	-8.69587	500.67929	782.79510	-9.56558	510.81671	34.30723	1341.39636	-911.19891	
3776	37.750	-751.34723	31.48697	-633.43481	818.44366	32.88455	-638.59375	-659.74561	-8.52401	500.73749	782.36017	-9.20193	510.85806	34.51023	1340.99988	-911.78955	
3777	37.760	-751.81305	31.00300	-633.65564	818.07806	32.34440	-638.82526	-660.01141	-8.34119	500.74142	782.16553	-9.05717	510.85983	34.60343	1340.58142	-912.49011	
3778	37.770	-751.98859	30.78234	-633.59509	818.03284	31.95265	-638.74548	-660.29810	-8.11735	500.70972	781.96973	-8.89200	510.74899	34.08152	1339.84082	-913.21423	
3779	37.780	-752.16937	30.39372	-633.69183	817.87714	31.72219	-638.74713	-660.44055	-7.79656	500.65726	781.63824	-8.57344	510.62512	33.82431	1339.30200	-913.63354	
3780	37.790	-752.59399	30.01099	-633.73901	817.53162	31.54798	-638.87329	-660.73669	-7.56881	500.64636	781.19055	-8.28627	510.50723	33.65055	1339.04736	-914.30896	
3781	37.800	-753.04425	29.55451	-633.72437	816.94531	31.17264	-639.02649	-661.20081	-7.36314	500.51712	780.90540	-8.01690	510.43704	33.00604	1338.52942	-915.60443	
3782	37.810	-753.45868	29.32833	-633.81787	816.44513	30.63678	-639.24585	-661.53009	-7.11468	500.48453	780.71558	-7.90889	510.38940	32.64644	1337.91174	-916.05975	
3783	37.820	-753.96210	29.09187	-634.00616	816.04950	30.22901	-639.23566	-661.77673	-6.91006	500.51840	780.33514	-7.64702	510.31903	32.27895	1337.31470	-917.27362	
3784	37.830	-754.27490	28.75422	-634.16119	815.85956	29.92886	-639.16791	-662.12250	-6.55667	500.45688	779.92474	-7.30679	510.26465	32.10069	1336.90674	-918.15015	
3785	37.840	-754.67664	28.35994	-634.43317	815.55963	29.68254	-639.22687	-662.66461	-5.97305	500.21173	779.62061	-6.95313	510.14139	31.28324	1336.46277	-919.06866	
3786	37.850	-755.18695	27.94729	-634.40363	815.16272	29.34857	-639.41107	-663.05817	-5.73313	500.12723	779.21967	-6.62849	509.93973	30.90262	1335.82751	-919.87646	
3787	37.860	-755.47156	27.50896	-634.51996	814.51648	28.76045	-639.72748	-663.49280	-5.49191	500.07629	778.78851	-6.31915	509.81857	30.91144	1335.22168	-921.00037	
3788	37.870	-755.80652	26.94588	-634.64874	814.19653	28.36704	-639.78491	-664.11517	-5.15615	500.01712	778.04706	-6.08577	509.85132	30.51149	1334.42261	-921.59662	
3789	37.880	-755.99915	26.30883	-634.54034	813.69104	27.90895	-639.80109	-664.78345	-4.61122	499.93298	777.59869	-5.87833	509.67017	29.52867	1333.90381	-922.41504	
3790	37.890	-756.80341	25.99527	-634.70392	813.16431	27.49296	-639.86774	-665.42615	-4.16432	500.06396	777.09338	-5.54645	509.69455	29.36964	1333.18530	-923.66949	
3791	37.900	-757.36005	25.78450	-634.77985	812.70612	27.01661	-640.02411	-665.58740	-4.09886	499.97333	776.76123	-5.16536	509.59448	28.50348	1332.86194	-924.63477	
3792	37.910	-757.91602	25.45945	-634.95154	812.28113	26.63038	-640.07239	-665.85504	-3.80367	499.82574	776.29877	-4.71007	509.45911	28.04918	1332.36938	-925.53241	
3793	37.920	-758.42145	24.93549	-635.13074	811.87469	26.35283	-640.24023	-666.49738	-3.63438	499.69806	775.94904	-4.46686	509.36636	28.09495	1331.35693	-926.57416	
3794	37.930	-758.93158	24.34813	-635.33844	811.26746	25.98773	-640.21454	-667.07922	-3.29929	499.59100	775.50543	-4.27225	509.27792	27.41660	1330.84485	-927.57239	
3795	37.940	-759.35785	24.17044	-635.47119	810.75629	25.23791	-640.37402	-667.39227	-3.09607	499.44406	774.94098	-3.90841	509.20282	27.00596	1330.36877	-928.26361	
3796	37.950	-759.64709	23.89623	-635.48969	810.16278	24.93446	-640.52002	-667.79846	-2.87362	499.39197	774.45911	-3.63745	509.11353	26.25479	1329.60828	-929.68884	
3797	37.960	-760.38361	23.33373	-635.47278	809.68835	24.66554	-640.60718	-668.28235	-2.59231	499.29810	773.81665	-3.22753	509.04984	26.00059	1329.28943	-930.33435	
3798	37.970	-761.08008	22.80159	-635.59308	809.07867	24.52919	-640.77136	-668.72351	-2.65517	499.33478	773.09064	-2.80062	509.03143	24.88637	1328.78174	-931.03265	
